# This file uses centimeters as units for non-parametric coordinates.

mtllib Piramide.mtl
g default
v 1.326921 -0.019476 0.983240
v 1.344015 -0.026557 0.983240
v 1.344015 -0.019476 1.000335
v 1.344015 -0.002381 1.007416
v 1.326921 -0.002381 1.000335
v 1.319840 -0.002381 0.983240
v 3.327591 -0.019476 0.983240
v 3.334672 -0.002381 0.983240
v 3.327591 -0.002381 1.000335
v 3.310496 -0.002381 1.007416
v 3.310496 -0.019476 1.000335
v 3.310496 -0.026557 0.983240
v 2.310068 1.976274 0.016893
v 2.309947 1.975980 0.016893
v 2.310068 1.975980 0.017188
v 2.310363 1.975980 0.017309
v 2.310363 1.976274 0.017188
v 2.310363 1.976395 0.016893
v 2.344444 1.976274 0.016893
v 2.344149 1.976395 0.016893
v 2.344149 1.976274 0.017188
v 2.344149 1.975980 0.017309
v 2.344444 1.975980 0.017188
v 2.344565 1.975980 0.016893
v 2.310068 1.975980 -0.017188
v 2.309947 1.975980 -0.016893
v 2.310068 1.976274 -0.016893
v 2.310363 1.976395 -0.016893
v 2.310363 1.976274 -0.017188
v 2.310363 1.975980 -0.017309
v 2.344444 1.975980 -0.017188
v 2.344149 1.975980 -0.017309
v 2.344149 1.976274 -0.017188
v 2.344149 1.976395 -0.016893
v 2.344444 1.976274 -0.016893
v 2.344565 1.975980 -0.016893
v 1.326921 -0.019476 -0.983240
v 1.319840 -0.002381 -0.983240
v 1.326921 -0.002381 -1.000335
v 1.344015 -0.002381 -1.007416
v 1.344015 -0.019476 -1.000335
v 1.344015 -0.026557 -0.983240
v 3.327591 -0.019476 -0.983240
v 3.310496 -0.026557 -0.983240
v 3.310496 -0.019476 -1.000335
v 3.310496 -0.002381 -1.007416
v 3.327591 -0.002381 -1.000335
v 3.334672 -0.002381 -0.983240
v 1.330062 -0.016334 0.997193
v 3.324449 -0.016334 0.997193
v 2.310123 1.976220 0.017133
v 2.344389 1.976220 0.017133
v 2.310123 1.976220 -0.017133
v 2.344389 1.976220 -0.017133
v 1.330062 -0.016334 -0.997193
v 3.324449 -0.016334 -0.997193
vt 0.480111 0.538308
vt 0.483654 0.538308
vt 0.064849 0.494690
vt 0.480111 0.945781
vt 0.063381 0.087216
vt 0.063381 0.494690
vt 0.068391 0.082207
vt 0.068391 0.083674
vt 0.693295 0.082131
vt 0.680170 0.082207
vt 0.072638 0.538308
vt 0.064849 0.083674
vt 0.268566 0.287391
vt 0.268541 0.287452
vt 0.268627 0.287366
vt 0.685179 0.087216
vt 0.683712 0.087216
vt 0.689753 0.493147
vt 0.685179 0.494690
vt 0.072638 0.945781
vt 0.683712 0.083674
vt 0.479995 0.287392
vt 0.479934 0.287367
vt 0.480020 0.287453
vt 0.268566 0.287452
vt 0.697467 0.089263
vt 0.268541 0.294453
vt 0.697528 0.082262
vt 0.697528 0.089263
vt 0.697528 0.082201
vt 0.479934 0.287392
vt 0.708266 0.082262
vt 0.708327 0.082262
vt 0.479995 0.294454
vt 0.708266 0.089263
vt 0.480020 0.294454
vt 0.268566 0.294514
vt 0.064849 0.498232
vt 0.268627 0.294540
vt 0.068391 0.499699
vt 0.268627 0.294514
vt 0.708266 0.089324
vt 0.479934 0.294540
vt 0.479995 0.294515
vt 0.683712 0.498232
vt 0.680170 0.499699
vt 0.480111 0.949323
vt 0.680170 0.498232
vt 0.483003 0.535416
vt 0.683061 0.084325
vt 0.268577 0.287403
vt 0.708316 0.082213
vt 0.268577 0.294503
vt 0.479983 0.294503
vt 0.065500 0.497581
vt 0.690404 0.496038
vt 0.475864 0.498232
vt 0.072638 0.949323
vt 0.693295 0.496689
vt 0.683061 0.497581
vt 0.683712 0.494690
vt 0.483003 0.948672
vt 0.068391 0.498232
vt 0.483654 0.945781
vt 0.704529 0.089324
vt 0.275628 0.294514
vt 0.479934 0.294515
vt 0.708316 0.089313
vt 0.708327 0.089263
vt 0.268566 0.294453
vt 0.697478 0.089313
vt 0.697528 0.089324
vt 0.275628 0.287391
vt 0.704529 0.082201
vt 0.708266 0.082201
vt 0.479983 0.287403
vt 0.479995 0.287453
vt 0.697478 0.082213
vt 0.268627 0.287391
vt 0.697467 0.082262
vt 0.690404 0.082782
vt 0.072638 0.534765
vt 0.475864 0.083674
vt 0.680170 0.083674
vt 0.689753 0.085673
vt 0.480111 0.534765
vt 0.065500 0.084325
vt 0.064849 0.087216
vt 0.475864 0.499699
vt 0.693295 0.493147
vt 0.275628 0.294540
vt 0.704529 0.089263
vt 0.704529 0.082262
vt 0.275628 0.287366
vt 0.475864 0.082207
vt 0.693295 0.085673
vn -0.003559 -0.999987 0.003559
vn -0.382438 -0.923979 0.002209
vn -0.382438 -0.923979 -0.002209
vn -0.003559 -0.999987 -0.003559
vn -0.923979 -0.382437 0.002209
vn -0.900583 0.434656 0.004866
vn -0.900583 0.434656 -0.004866
vn -0.923979 -0.382437 -0.002209
vn -0.004866 0.434656 0.900583
vn -0.002209 -0.382438 0.923979
vn 0.002209 -0.382438 0.923979
vn 0.004866 0.434656 0.900583
vn -0.002209 -0.923979 0.382437
vn 0.003559 -0.999987 0.003559
vn 0.002209 -0.923979 0.382437
vn -0.780162 0.535994 0.322579
vn -0.774881 0.544569 0.320942
vn -0.893830 0.448401 0.002187
vn -0.322577 0.535995 0.780163
vn -0.002187 0.448401 0.893830
vn -0.320940 0.544569 0.774882
vn 0.900583 0.434656 0.004866
vn 0.923979 -0.382437 0.002209
vn 0.923979 -0.382437 -0.002209
vn 0.900583 0.434656 -0.004866
vn 0.382438 -0.923979 0.002209
vn 0.003559 -0.999987 -0.003559
vn 0.382438 -0.923979 -0.002209
vn 0.322577 0.535995 0.780163
vn 0.320940 0.544569 0.774882
vn 0.002187 0.448401 0.893830
vn 0.780163 0.535993 0.322579
vn 0.893830 0.448401 0.002187
vn 0.774882 0.544568 0.320942
vn -0.924266 0.381743 0.002211
vn -0.924266 0.381743 -0.002211
vn -0.893830 0.448401 -0.002187
vn -0.381454 0.924385 0.002212
vn -0.003559 0.999987 0.003559
vn -0.003559 0.999987 -0.003558
vn -0.381454 0.924385 -0.002212
vn -0.002210 0.924403 0.381410
vn 0.002211 0.924403 0.381410
vn 0.003559 0.999987 0.003558
vn -0.002212 0.381751 0.924263
vn 0.002211 0.381751 0.924263
vn 0.381454 0.924385 0.002212
vn 0.381454 0.924385 -0.002212
vn 0.003559 0.999987 -0.003559
vn 0.924266 0.381743 0.002211
vn 0.893830 0.448401 -0.002187
vn 0.924266 0.381743 -0.002211
vn -0.774881 0.544569 -0.320942
vn -0.780162 0.535994 -0.322579
vn -0.320940 0.544569 -0.774882
vn -0.002187 0.448401 -0.893830
vn -0.004866 0.434656 -0.900583
vn -0.322577 0.535995 -0.780163
vn -0.002211 0.381751 -0.924263
vn 0.002212 0.381751 -0.924263
vn 0.002187 0.448401 -0.893830
vn -0.002211 0.924403 -0.381410
vn 0.002210 0.924403 -0.381410
vn 0.320940 0.544569 -0.774882
vn 0.322577 0.535995 -0.780163
vn 0.004866 0.434656 -0.900583
vn 0.774882 0.544568 -0.320942
vn 0.780163 0.535993 -0.322579
vn -0.002209 -0.923979 -0.382437
vn 0.002209 -0.923979 -0.382437
vn -0.002209 -0.382438 -0.923979
vn 0.002209 -0.382438 -0.923979
vn -0.887921 -0.325263 0.325269
vn -0.325269 -0.887921 0.325263
vn -0.325263 -0.325269 0.887921
vn 0.325269 -0.887921 0.325263
vn 0.887921 -0.325263 0.325269
vn 0.325263 -0.325269 0.887921
vn -0.325012 0.888007 0.325287
vn -0.887853 0.325872 0.324845
vn -0.324883 0.325810 0.887862
vn 0.887853 0.325873 0.324845
vn 0.325022 0.888033 0.325204
vn 0.324855 0.325783 0.887882
vn -0.324855 0.325783 -0.887882
vn -0.887853 0.325873 -0.324845
vn -0.325022 0.888033 -0.325204
vn 0.887853 0.325872 -0.324845
vn 0.324883 0.325810 -0.887862
vn 0.325012 0.888007 -0.325287
vn -0.325269 -0.887921 -0.325263
vn -0.887921 -0.325263 -0.325269
vn -0.325263 -0.325269 -0.887921
vn 0.887921 -0.325263 -0.325269
vn 0.325269 -0.887921 -0.325263
vn 0.325263 -0.325269 -0.887921
s 1
g piramide1 group1
usemtl aiStandardSurface1SG
f 2/1/1 1/2/2 37/64/3 42/4/4
s 2
f 1/88/5 6/5/6 38/6/7 37/3/8
s 3
f 4/7/9 3/8/10 11/83/11 10/95/12
s 1
f 3/86/13 2/1/1 12/11/14 11/82/15
s 2
f 6/5/6 5/12/16 15/13/17 14/14/18
s 3
f 5/12/19 4/7/9 16/15/20 15/13/21
s 4
f 8/16/22 7/17/23 43/61/24 48/19/25
s 1
f 7/85/26 12/96/14 44/90/27 43/18/28
s 3
f 10/10/12 9/21/29 23/22/30 22/23/31
s 4
f 9/21/32 8/16/22 24/24/33 23/22/34
s 2
f 14/14/18 13/25/35 27/70/36 26/27/37
s 5
f 13/80/38 18/28/39 28/29/40 27/26/41
f 18/28/39 17/30/42 21/74/43 20/93/44
s 3
f 17/79/45 16/15/20 22/94/31 21/73/46
s 5
f 20/32/44 19/33/47 35/69/48 34/35/49
s 4
f 19/77/50 24/24/33 36/36/51 35/34/52
s 2
f 26/27/37 25/37/53 39/38/54 38/6/7
s 6
f 25/37/55 30/39/56 40/40/57 39/38/58
f 30/39/56 29/41/59 33/66/60 32/91/61
s 5
f 29/72/62 28/29/40 34/92/49 33/65/63
s 6
f 32/43/61 31/44/64 47/45/65 46/46/66
s 4
f 31/44/67 36/36/51 48/19/25 47/45/68
s 1
f 42/4/4 41/47/69 45/58/70 44/20/27
s 6
f 41/63/71 40/40/57 46/89/66 45/57/72
s 3
f 4/7/9 10/95/12 22/94/31 16/15/20
s 5
f 18/28/39 20/93/44 34/92/49 28/29/40
s 6
f 30/39/56 32/91/61 46/89/66 40/40/57
s 1
f 42/4/4 44/20/27 12/11/14 2/1/1
s 4
f 8/16/22 48/19/25 36/36/51 24/24/33
s 2
f 38/6/7 6/5/6 14/14/18 26/27/37
f 5/12/16 6/5/6 1/88/5 49/87/73
s 1
f 1/2/2 2/1/1 3/86/13 49/49/74
s 3
f 3/8/10 4/7/9 5/12/19 49/87/75
s 1
f 11/9/15 12/96/14 7/85/26 50/81/76
s 4
f 7/17/23 8/16/22 9/21/32 50/50/77
s 3
f 9/21/29 10/10/12 11/84/11 50/50/78
s 5
f 17/30/42 18/28/39 13/80/38 51/78/79
s 2
f 13/25/35 14/14/18 15/13/17 51/51/80
s 3
f 15/13/21 16/15/20 17/79/45 51/51/81
s 4
f 23/22/34 24/24/33 19/77/50 52/76/82
s 5
f 19/33/47 20/32/44 21/75/43 52/52/83
s 3
f 21/31/46 22/23/31 23/22/30 52/76/84
s 6
f 29/41/59 30/39/56 25/37/55 53/53/85
s 2
f 25/37/53 26/27/37 27/70/36 53/53/86
s 5
f 27/26/41 28/29/40 29/72/62 53/71/87
s 4
f 35/34/52 36/36/51 31/44/67 54/54/88
s 6
f 31/44/64 32/43/61 33/67/60 54/54/89
s 5
f 33/42/63 34/35/49 35/69/48 54/68/90
s 1
f 41/47/69 42/4/4 37/64/3 55/62/91
s 2
f 37/3/8 38/6/7 39/38/54 55/55/92
s 6
f 39/38/58 40/40/57 41/63/71 55/55/93
s 4
f 47/45/68 48/19/25 43/61/24 56/60/94
s 1
f 43/18/28 44/90/27 45/59/70 56/56/95
s 6
f 45/48/72 46/46/66 47/45/65 56/60/96
